<svg width="40" height="40" viewBox="0 0 40 40" fill="none" xmlns="http://www.w3.org/2000/svg">
<g filter="url(#filter0_b_96_17)">
<circle cx="20" cy="20" r="20" fill="#00083A" fill-opacity="0.22"/>
<circle cx="20" cy="20" r="19.5" stroke="white" stroke-opacity="0.22"/>
</g>
<path d="M28.659 18.2833C28.7961 18.1542 29 18.275 29 18.4792V27C29 28.1042 28.2441 29 27.3125 29H12.6875C11.7559 29 11 28.1042 11 27V18.4833C11 18.275 11.2004 18.1583 11.341 18.2875C12.1285 19.0125 13.1727 19.9333 16.7586 23.0208C17.5004 23.6625 18.752 25.0125 20 25.0042C21.2551 25.0167 22.5312 23.6375 23.2449 23.0208C26.8309 19.9333 27.8715 19.0083 28.659 18.2833ZM20 23.6667C20.8156 23.6833 21.9898 22.45 22.5805 21.9417C27.2457 17.9292 27.6008 17.5792 28.6766 16.5792C28.8805 16.3917 29 16.1 29 15.7917V15C29 13.8958 28.2441 13 27.3125 13H12.6875C11.7559 13 11 13.8958 11 15V15.7917C11 16.1 11.1195 16.3875 11.3234 16.5792C12.3992 17.575 12.7543 17.9292 17.4195 21.9417C18.0102 22.45 19.1844 23.6833 20 23.6667Z" fill="#FFC702"/>
<defs>
<filter id="filter0_b_96_17" x="-39" y="-39" width="118" height="118" filterUnits="userSpaceOnUse" color-interpolation-filters="sRGB">
<feFlood flood-opacity="0" result="BackgroundImageFix"/>
<feGaussianBlur in="BackgroundImageFix" stdDeviation="19.5"/>
<feComposite in2="SourceAlpha" operator="in" result="effect1_backgroundBlur_96_17"/>
<feBlend mode="normal" in="SourceGraphic" in2="effect1_backgroundBlur_96_17" result="shape"/>
</filter>
</defs>
</svg>
