<svg width="40" height="40" viewBox="0 0 40 40" fill="none" xmlns="http://www.w3.org/2000/svg">
<g filter="url(#filter0_b_96_10)">
<circle cx="20" cy="20" r="20" fill="#00083A" fill-opacity="0.22"/>
<circle cx="20" cy="20" r="19.5" stroke="white" stroke-opacity="0.22"/>
</g>
<path d="M29.4867 23.7194L25.5491 22.0319C25.3809 21.9602 25.1939 21.9451 25.0164 21.9889C24.8389 22.0326 24.6804 22.1329 24.5647 22.2745L22.8209 24.405C20.0842 23.1147 17.8818 20.9123 16.5915 18.1756L18.722 16.4318C18.8639 16.3163 18.9644 16.1578 19.0081 15.9802C19.0519 15.8026 19.0366 15.6155 18.9646 15.4474L17.277 11.5098C17.198 11.3285 17.0581 11.1805 16.8817 11.0913C16.7052 11.0021 16.5031 10.9773 16.3102 11.0211L12.6539 11.8649C12.468 11.9078 12.3021 12.0125 12.1834 12.1619C12.0646 12.3112 12 12.4964 12 12.6872C12 21.7049 19.3091 29 28.3128 29C28.5037 29.0001 28.6889 28.9355 28.8384 28.8168C28.9878 28.698 29.0925 28.5321 29.1355 28.3461L29.9792 24.6898C30.0228 24.496 29.9974 24.2931 29.9075 24.116C29.8176 23.9389 29.6688 23.7987 29.4867 23.7194Z" fill="#FFC702"/>
<defs>
<filter id="filter0_b_96_10" x="-39" y="-39" width="118" height="118" filterUnits="userSpaceOnUse" color-interpolation-filters="sRGB">
<feFlood flood-opacity="0" result="BackgroundImageFix"/>
<feGaussianBlur in="BackgroundImageFix" stdDeviation="19.5"/>
<feComposite in2="SourceAlpha" operator="in" result="effect1_backgroundBlur_96_10"/>
<feBlend mode="normal" in="SourceGraphic" in2="effect1_backgroundBlur_96_10" result="shape"/>
</filter>
</defs>
</svg>
